<svg id="check_" data-name="check " xmlns="http://www.w3.org/2000/svg" width="32" height="32" viewBox="0 0 32 32">
  <path id="Tracé_1643" data-name="Tracé 1643" d="M26,32H6a6,6,0,0,1-6-6V6A6,6,0,0,1,6,0H26a6,6,0,0,1,6,6V26A6,6,0,0,1,26,32Zm0,0" fill="#fff9dd"/>
  <path id="Tracé_1644" data-name="Tracé 1644" d="M155.1,189.516a.663.663,0,0,1-.471-.2l-4.083-4.083a.667.667,0,0,1,.943-.943l3.612,3.612,7.7-7.7a.667.667,0,0,1,.943.943l-8.167,8.167a.671.671,0,0,1-.472.194Zm0,0" transform="translate(-140.956 -168.766)" fill="#ffd200"/>
</svg>
